{"title":"Sunlight Jr. 2013 WEB-DL 720p Naomi Watts, Norman Reedus","uid":12068304,"size":3213053661,"categoryP":"video","categoryS":"hd___movies","magnet":"?xt=urn:btih:507846ac7d9f0286f70df858737051eaba5d3ff4&amp;dn=Sunlight+Jr.+2013+WEB-DL+720p+Naomi+Watts%2C+Norman+Reedus&amp;tr=udp%3A%2F%2Ftracker.openbittorrent.com%3A80&amp;tr=udp%3A%2F%2Fopen.demonii.com%3A1337&amp;tr=udp%3A%2F%2Ftracker.coppersurfer.tk%3A6969&amp;tr=udp%3A%2F%2Fexodus.desync.com%3A6969","seeders":4,"leechers":1,"uploader":"brablay","files":1,"time":1435441026,"description":"Movie Info:\nSunlight Jr. spotlights hard-working convenience store clerk Melissa (Naomi Watts) and her disabled boyfriend, Richie (Matt Dillon), who are trapped in a generational cycle of poverty. Their luck may be changing when they learn that Melissa has become pregnant. But as soon as she loses her job and they get evicted from the motel they live in, their joy vanishes. Through this adversity, the couple realizes that they can never lose everything as long as they have each other. \n\nCountry: USA\nStudio: Original Media, Freight Yard Films, Alchemedia Films\nDuration: 01:34:52\n\nInfo:\n\n[mediainfo]\n\nVideo\nID : 1\nFormat : AVC\nFormat/Info : Advanced Video Codec\nFormat profile : &lt;a class=&quot;__cf_email__&quot; href=&quot;/cdn-cgi/l/email-protection&quot; data-cfemail=&quot;0e436f67604e423d203f&quot;&gt;[email&amp;#160;protected]&lt;/a&gt;&lt;script data-cfhash='f9e31' type=&quot;text/javascript&quot;&gt;\n/* &lt;![CDATA[ */!function(){try{var t=&quot;currentScript&quot;in document?document.currentScript:function(){for(var t=document.getElementsByTagName(&quot;script&quot;),e=t.length;e--;)if(t[e].getAttribute(&quot;data-cfhash&quot;))return t[e]}();if(t&amp;&amp;t.previousSibling){var e,r,n,i,c=t.previousSibling,a=c.getAttribute(&quot;data-cfemail&quot;);if(a){for(e=&quot;&quot;,r=parseInt(a.substr(0,2),16),n=2;a.length-n;n+=2)i=parseInt(a.substr(n,2),16)^r,e+=String.fromCharCode(i);e=document.createTextNode(e),c.parentNode.replaceChild(e,c)}t.parentNode.removeChild(t);}}catch(u){}}()/* ]]&gt; */&lt;/script&gt;\nFormat settings, CABAC : No\nFormat settings, ReFrames : 2 frames\nCodec ID : V_MPEG4/ISO/AVC\nDuration : 1h 34mn\nBit rate : 3 850 Kbps\nWidth : 1 280 pixels\nHeight : 532 pixels\nDisplay aspect ratio : 2.40:1\nFrame rate mode : Constant\nFrame rate : 23.976 fps\nColor space : YUV\nChroma subsampling : 4:2:0\nBit depth : 8 bits\nScan type : Progressive\nBits/(Pixel*Frame) : 0.236\nStream size : 2.55 GiB (85%)\nLanguage : English\nDefault : Yes\nForced : No\nColor range : Limited\nColor primaries : BT.709\nTransfer characteristics : BT.709\nMatrix coefficients : BT.709\n\nAudio #1\nID : 2\nFormat : AC-3\nFormat/Info : Audio Coding 3\nMode extension : CM (complete main)\nFormat settings, Endianness : Big\nCodec ID : A_AC3\nDuration : 1h 34mn\nBit rate mode : Constant\nBit rate : 192 Kbps\nChannel(s) : 2 channels\nChannel positions : Front: L R\nSampling rate : 48.0 KHz\nBit depth : 16 bits\nCompression mode : Lossy\nStream size : 130 MiB (4%)\nLanguage : Russian\nDefault : Yes\nForced : No\n\nAudio #2\nID : 3\nFormat : AC-3\nFormat/Info : Audio Coding 3\nMode extension : CM (complete main)\nFormat settings, Endianness : Big\nCodec ID : A_AC3\nDuration : 1h 34mn\nBit rate mode : Constant\nBit rate : 384 Kbps\nChannel(s) : 6 channels\nChannel positions : Front: L C R, Side: L R, LFE\nSampling rate : 48.0 KHz\nBit depth : 16 bits\nCompression mode : Lossy\nStream size : 261 MiB (9%)\nLanguage : English\nDefault : No\nForced : No\n\nText\nID : 4\nFormat : UTF-8\nCodec ID : S_TEXT/UTF8\nCodec ID/Info : UTF-8 Plain Text\nLanguage : English\nDefault : Yes\nForced : No\n\n[/mediainfo]","torrent":{"xt":"urn:btih:507846ac7d9f0286f70df858737051eaba5d3ff4","amp;dn":"Sunlight+Jr.+2013+WEB-DL+720p+Naomi+Watts%2C+Norman+Reedus","amp;tr":["udp%3A%2F%2Ftracker.openbittorrent.com%3A80","udp%3A%2F%2Fopen.demonii.com%3A1337","udp%3A%2F%2Ftracker.coppersurfer.tk%3A6969","udp%3A%2F%2Fexodus.desync.com%3A6969"],"infoHash":"507846ac7d9f0286f70df858737051eaba5d3ff4","infoHashBuffer":{"type":"Buffer","data":[80,120,70,172,125,159,2,134,247,13,248,88,115,112,81,234,186,93,63,244]},"announce":[],"urlList":[]}}